<svg width="629" height="131" viewBox="0 0 629 131" fill="none" xmlns="http://www.w3.org/2000/svg">
<rect x="294" y="111" width="330" height="8" fill="#FC862B"/>
<rect x="294" y="111" width="124" height="8" fill="white"/>
<rect x="240" y="111" width="8" height="8" fill="white"/>
<rect x="256" y="111" width="8" height="8" fill="#FC862B"/>
<rect x="272" y="111" width="8" height="8" fill="white"/>
<path d="M17.5781 63.4219H57.1289V81H0V19.4766H17.5781V63.4219ZM103.264 59.0273L99.4852 50.502L95.7059 59.0273H103.264ZM111.087 76.6055H87.8836L85.9061 81H66.6141L99.4852 7.17188L132.356 81H113.064L111.087 76.6055ZM137.183 54.6328V19.4766H154.761V54.6328C154.761 60.4922 157.691 63.4219 163.55 63.4219H172.339C178.199 63.4219 181.129 60.4922 181.129 54.6328V19.4766H198.707V54.6328C198.707 72.2109 189.918 81 172.339 81H163.55C145.972 81 137.183 72.2109 137.183 54.6328ZM227.967 51.3809V81H210.389V16.5322L254.334 49.0957V19.4766H271.913V83.9443L227.967 51.3809ZM318.663 63.4219C324.523 63.4219 327.452 60.4922 327.452 54.6328H345.03C345.03 72.2109 336.241 81 318.663 81H309.874C292.296 81 283.507 72.2109 283.507 54.6328V45.8438C283.507 28.2656 292.296 19.4766 309.874 19.4766H318.663C336.241 19.4766 345.03 28.2656 345.03 45.8438H327.452C327.452 39.9844 324.523 37.0547 318.663 37.0547H309.874C304.015 37.0547 301.085 39.9844 301.085 45.8438V54.6328C301.085 60.4922 304.015 63.4219 309.874 63.4219H318.663ZM374.291 59.0273V81H356.713V19.4766H374.291V41.4492H400.658V19.4766H418.236V81H400.658V59.0273H374.291ZM471.579 41.4492C473.044 41.4492 473.776 40.7168 473.776 39.252C473.776 37.7871 473.044 37.0547 471.579 37.0547H447.409V41.4492H471.579ZM491.354 39.252C491.354 52.4355 484.763 59.0273 471.579 59.0273H447.409V81H429.831V19.4766H471.579C484.763 19.4766 491.354 26.0684 491.354 39.252ZM524.394 59.0273L520.615 50.502L516.836 59.0273H524.394ZM532.216 76.6055H509.013L507.036 81H487.744L520.615 7.17188L553.486 81H534.194L532.216 76.6055ZM624.495 54.6328C624.495 72.2109 615.705 81 598.127 81H562.971V19.4766H598.127C615.705 19.4766 624.495 28.2656 624.495 45.8438V54.6328ZM598.127 63.4219C603.987 63.4219 606.916 60.4922 606.916 54.6328V45.8438C606.916 39.9844 603.987 37.0547 598.127 37.0547H580.549V63.4219H598.127Z" fill="white"/>
<path d="M6.075 112.64H7.08C7.46 112.64 7.77 112.59 8.01 112.49C8.25 112.38 8.465 112.21 8.655 111.98L15.195 104.18C15.425 103.89 15.66 103.69 15.9 103.58C16.15 103.46 16.46 103.4 16.83 103.4H19.83L12.105 112.52C11.895 112.78 11.69 113 11.49 113.18C11.3 113.35 11.09 113.49 10.86 113.6C11.16 113.71 11.43 113.865 11.67 114.065C11.91 114.255 12.145 114.51 12.375 114.83L20.385 125H17.325C17.105 125 16.915 124.985 16.755 124.955C16.605 124.925 16.47 124.88 16.35 124.82C16.24 124.76 16.14 124.685 16.05 124.595C15.97 124.505 15.895 124.405 15.825 124.295L9.075 116.045C8.975 115.915 8.875 115.805 8.775 115.715C8.675 115.625 8.555 115.55 8.415 115.49C8.285 115.43 8.135 115.39 7.965 115.37C7.795 115.34 7.595 115.325 7.365 115.325H6.075V125H2.565V103.4H6.075V112.64ZM57.7441 122.165L57.7291 125H44.2591V103.4H57.7291V106.235H47.7841V112.745H55.7341V115.49H47.7841V122.165H57.7441ZM89.2643 113.75C90.0643 113.75 90.7643 113.655 91.3643 113.465C91.9643 113.265 92.4643 112.99 92.8643 112.64C93.2643 112.29 93.5643 111.875 93.7643 111.395C93.9643 110.905 94.0643 110.365 94.0643 109.775C94.0643 108.595 93.6743 107.695 92.8943 107.075C92.1143 106.455 90.9343 106.145 89.3543 106.145H86.5043V113.75H89.2643ZM99.4343 125H96.2993C95.6793 125 95.2293 124.76 94.9493 124.28L89.9093 117.005C89.7393 116.755 89.5543 116.575 89.3543 116.465C89.1543 116.355 88.8543 116.3 88.4543 116.3H86.5043V125H82.9943V103.4H89.3543C90.7743 103.4 91.9943 103.545 93.0143 103.835C94.0443 104.125 94.8893 104.54 95.5493 105.08C96.2093 105.61 96.6943 106.25 97.0043 107C97.3243 107.75 97.4843 108.585 97.4843 109.505C97.4843 110.255 97.3693 110.955 97.1393 111.605C96.9193 112.255 96.5943 112.845 96.1643 113.375C95.7443 113.905 95.2243 114.365 94.6043 114.755C93.9843 115.145 93.2793 115.45 92.4893 115.67C92.9193 115.93 93.2893 116.295 93.5993 116.765L99.4343 125ZM134.917 116.9L131.947 109.01C131.707 108.4 131.462 107.625 131.212 106.685C131.102 107.155 130.982 107.59 130.852 107.99C130.722 108.38 130.602 108.725 130.492 109.025L127.522 116.9H134.917ZM141.562 125H138.847C138.537 125 138.287 124.925 138.097 124.775C137.907 124.615 137.762 124.42 137.662 124.19L135.862 119.42H126.562L124.762 124.19C124.682 124.39 124.542 124.575 124.342 124.745C124.142 124.915 123.892 125 123.592 125H120.877L129.442 103.4H132.997L141.562 125ZM178.013 122.06V125H165.533V103.4H169.043V122.06H178.013ZM213.911 116.9L210.941 109.01C210.701 108.4 210.456 107.625 210.206 106.685C210.096 107.155 209.976 107.59 209.846 107.99C209.716 108.38 209.596 108.725 209.486 109.025L206.516 116.9H213.911ZM220.556 125H217.841C217.531 125 217.281 124.925 217.091 124.775C216.901 124.615 216.756 124.42 216.656 124.19L214.856 119.42H205.556L203.756 124.19C203.676 124.39 203.536 124.575 203.336 124.745C203.136 124.915 202.886 125 202.586 125H199.871L208.436 103.4H211.991L220.556 125Z" fill="#FC862B"/>
</svg>
