<?xml version="1.0" encoding="UTF-8"?>
<!-- Generator: Adobe Illustrator 21.0.0, SVG Export Plug-In . SVG Version: 6.00 Build 0)  -->
<svg version="1.1" id="svg13" xmlns:cc="http://creativecommons.org/ns#" xmlns:dc="http://purl.org/dc/elements/1.1/" xmlns:rdf="http://www.w3.org/1999/02/22-rdf-syntax-ns#" xmlns:svg="http://www.w3.org/2000/svg" xmlns="http://www.w3.org/2000/svg" xmlns:xlink="http://www.w3.org/1999/xlink" x="0px" y="0px" viewBox="0 0 706 308" style="enable-background:new 0 0 706 308;" xml:space="preserve">
<style type="text/css">
	.st0{fill:#009EE0;}
	.st1{fill:#009C2C;}
	.st2{fill:#1B1918;}
</style>
<g id="Layer1000">
	<path id="path2" class="st0" d="M468.4,123.9C405.2,105.8,368,69,345.3,21.8c8.5,20.5,9.7,39.4,0.5,56.1   c10.8,18.2,26.6,32.6,47.5,43.2C418.3,122,443.4,123,468.4,123.9L468.4,123.9z"/>
	<path id="path4" class="st1" d="M223.2,123.9C286.4,105.8,323.6,69,346.3,21.8c-8.5,20.5-9.7,39.4-0.5,56.1   c-10.8,18.2-26.6,32.6-47.5,43.2C273.3,122,248.3,123,223.2,123.9z"/>
	<path id="path6" class="st2" d="M32.2,269.5v0.4c0,1.3,0.3,2.3,0.8,3.1c0.5,0.8,1.2,1.2,2.1,1.2c0.8,0,1.5-0.3,2-0.9   c0.5-0.6,0.8-1.3,0.8-2.3c0-0.9-0.2-1.6-0.6-2.1c-0.4-0.5-1.1-1.1-2-1.6c-0.6-0.3-1.4-0.7-2.4-1.2c-1.1-0.5-1.8-0.9-2.1-1.2   c-0.9-0.9-1.5-1.8-2-2.9s-0.6-2.3-0.6-3.7c0-2.4,0.7-4.4,2.1-6.1c1.4-1.7,3.1-2.5,5.1-2.5c2.1,0,3.8,0.7,5.1,2.2   c1.2,1.5,1.9,3.5,2,6.2h-5v-0.2c0-0.9-0.2-1.6-0.6-2.2c-0.4-0.5-1-0.8-1.7-0.8c-0.6,0-1.1,0.3-1.6,0.8c-0.4,0.5-0.6,1.2-0.6,1.9   c0,1.3,1.1,2.4,3.2,3.5c0.6,0.3,1,0.5,1.3,0.6c2.1,1.1,3.5,2.3,4.2,3.6c0.7,1.3,1.1,3,1.1,5.2c0,2.7-0.8,4.9-2.3,6.6   c-1.5,1.7-3.4,2.6-5.7,2.6c-2.3,0-4.2-0.9-5.6-2.7c-1.4-1.8-2.2-4.3-2.3-7.5L32.2,269.5z M52.2,250.4v3.2c0.8-1.3,1.7-2.3,2.8-2.9   c1.1-0.6,2.2-0.9,3.6-0.9c1.9,0,3.6,0.4,4.9,1.2c1.4,0.8,2.6,2.1,3.5,3.8c0.9-1.7,2-3,3.2-3.8c1.2-0.8,2.5-1.3,3.9-1.3   c2.9,0,5.2,1.1,6.7,3.3c1.6,2.2,2.3,5.3,2.3,9.5V279h-5.5v-12.7c0-3.9-0.4-6.5-1.1-7.9c-0.7-1.4-2-2.1-3.7-2.1   c-1.8,0-3.2,0.8-3.9,2.4c-0.8,1.6-1.2,4.3-1.2,8.1V279h-5.5v-12.7c0-3.9-0.4-6.5-1.1-7.9c-0.7-1.4-2-2.1-3.8-2.1   c-1.9,0-3.2,0.8-4,2.4c-0.8,1.6-1.2,4.3-1.2,8.1V279h-5.4v-28.6L52.2,250.4z M92.3,264.5c0,2.4,0.7,4.4,2,6c1.3,1.6,3,2.4,4.9,2.4   c1.8,0,3.3-0.8,4.6-2.4c1.3-1.6,2-3.5,2-5.7c0-2.3-0.7-4.3-2-6c-1.3-1.7-2.9-2.5-4.7-2.5c-1.9,0-3.5,0.8-4.8,2.4   C93,260.2,92.3,262.2,92.3,264.5L92.3,264.5z M106.5,279v-3.5c-0.7,1.4-1.6,2.5-2.8,3.1c-1.2,0.7-2.8,1-4.6,1   c-3.5,0-6.5-1.4-8.9-4.3c-2.4-2.9-3.6-6.5-3.6-10.7c0-2,0.3-3.9,0.9-5.7c0.6-1.8,1.4-3.4,2.5-4.8c1.2-1.5,2.5-2.6,4-3.3   c1.4-0.7,3.1-1.1,4.9-1.1c1.7,0,3.2,0.3,4.5,1c1.3,0.7,2.3,1.7,3,3.1v-3.5h5.4V279L106.5,279z M127.9,256.2c-2.2,0.2-3.7,0.9-4.5,2   c-0.9,1.1-1.3,3.2-1.3,6.2V279h-5.6v-28.6h5.2v3.3c0.8-1.3,1.8-2.2,2.8-2.8c1-0.6,2.1-0.9,3.4-0.9V256.2z M133.5,279v-22.7h-3.7   v-5.9h3.7v-9.3h5.6v9.3h3.7v5.9h-3.7V279H133.5z M162,269.5v0.4c0,1.3,0.3,2.3,0.8,3.1c0.5,0.8,1.2,1.2,2.1,1.2   c0.8,0,1.5-0.3,2-0.9c0.5-0.6,0.8-1.3,0.8-2.3c0-0.9-0.2-1.6-0.6-2.1c-0.4-0.5-1.1-1.1-2-1.6c-0.6-0.3-1.4-0.7-2.4-1.2   c-1.1-0.5-1.8-0.9-2.1-1.2c-0.9-0.9-1.5-1.8-2-2.9s-0.6-2.3-0.6-3.7c0-2.4,0.7-4.4,2.1-6.1c1.4-1.7,3.1-2.5,5.1-2.5   c2.1,0,3.8,0.7,5.1,2.2c1.2,1.5,1.9,3.5,2,6.2h-5v-0.2c0-0.9-0.2-1.6-0.6-2.2c-0.4-0.5-1-0.8-1.7-0.8c-0.6,0-1.1,0.3-1.6,0.8   c-0.4,0.5-0.6,1.2-0.6,1.9c0,1.3,1.1,2.4,3.2,3.5c0.6,0.3,1,0.5,1.3,0.6c2.1,1.1,3.5,2.3,4.2,3.6c0.7,1.3,1.1,3,1.1,5.2   c0,2.7-0.8,4.9-2.3,6.6c-1.5,1.7-3.4,2.6-5.7,2.6c-2.3,0-4.2-0.9-5.6-2.7c-1.4-1.8-2.2-4.3-2.3-7.5L162,269.5z M181.8,264.6   c0,2.4,0.7,4.5,2,6.1c1.3,1.6,2.9,2.5,4.9,2.5c1.9,0,3.5-0.8,4.9-2.5c1.4-1.7,2-3.7,2-6c0-2.4-0.7-4.4-2-6   c-1.4-1.6-3.1-2.4-5.2-2.4c-1.8,0-3.4,0.8-4.7,2.4C182.5,260.3,181.8,262.2,181.8,264.6L181.8,264.6z M181.6,276.7v11.5h-5.5v-37.8   h5.5v2.4c1.1-1.1,2.3-1.8,3.5-2.4c1.2-0.5,2.5-0.8,3.9-0.8c1.5,0,2.9,0.3,4.3,0.8c1.3,0.6,2.5,1.4,3.6,2.5c1.4,1.5,2.5,3.2,3.3,5.3   c0.8,2,1.2,4.2,1.2,6.5c0,2.1-0.3,4.2-1.1,6.1c-0.7,1.9-1.7,3.6-3,5c-1.1,1.3-2.4,2.2-3.8,2.9c-1.4,0.7-2.9,1-4.5,1   c-1.5,0-2.9-0.2-4.1-0.7C183.8,278.5,182.6,277.7,181.6,276.7L181.6,276.7z M209.4,264.5c0,2.4,0.7,4.4,2,6c1.3,1.6,3,2.4,4.9,2.4   c1.8,0,3.3-0.8,4.6-2.4c1.3-1.6,2-3.5,2-5.7c0-2.3-0.7-4.3-2-6c-1.3-1.7-2.9-2.5-4.7-2.5c-1.9,0-3.5,0.8-4.8,2.4   C210.1,260.2,209.4,262.2,209.4,264.5L209.4,264.5z M223.6,279v-3.5c-0.7,1.4-1.6,2.5-2.8,3.1c-1.2,0.7-2.8,1-4.6,1   c-3.5,0-6.5-1.4-8.9-4.3c-2.4-2.9-3.6-6.5-3.6-10.7c0-2,0.3-3.9,0.9-5.7c0.6-1.8,1.4-3.4,2.5-4.8c1.2-1.5,2.5-2.6,4-3.3   c1.4-0.7,3.1-1.1,4.9-1.1c1.7,0,3.2,0.3,4.5,1s2.3,1.7,3,3.1v-3.5h5.4V279L223.6,279z M251.1,260.6c-0.7-1.5-1.5-2.6-2.6-3.4   c-1-0.7-2.3-1.1-3.7-1.1c-1.9,0-3.5,0.8-4.7,2.4c-1.3,1.6-1.9,3.7-1.9,6.1c0,2.4,0.6,4.4,1.9,6.1c1.3,1.6,2.9,2.4,4.9,2.4   c1.5,0,2.8-0.4,3.8-1.2c1-0.8,1.8-1.9,2.2-3.5h5.9c-0.7,3.5-2.1,6.2-4.2,8.2c-2.1,2-4.7,3-7.7,3c-1.8,0-3.4-0.4-4.9-1.1   c-1.5-0.8-2.9-1.9-4.1-3.3c-1.1-1.4-2-3-2.6-4.9c-0.6-1.9-1-3.8-1-5.7c0-2,0.3-3.9,0.9-5.6c0.6-1.7,1.4-3.3,2.6-4.7   c1.2-1.6,2.7-2.8,4.2-3.6c1.6-0.8,3.3-1.2,5-1.2c2.9,0,5.5,1,7.6,3c2.1,2,3.6,4.7,4.2,8L251.1,260.6z M278.4,261.5   c-0.5-1.9-1.3-3.4-2.4-4.4c-1.1-1-2.5-1.5-4.2-1.5c-1.5,0-2.8,0.5-4,1.6c-1.2,1.1-2,2.5-2.4,4.2H278.4z M265.2,266.8   c0.2,2.1,0.9,3.7,2.1,4.9c1.2,1.2,2.7,1.8,4.6,1.8c1.2,0,2.4-0.3,3.4-0.9c1-0.6,1.8-1.5,2.4-2.6h6c-1,3.1-2.5,5.5-4.6,7.3   c-2,1.7-4.4,2.6-7,2.6c-1.8,0-3.4-0.4-4.9-1.1c-1.5-0.8-2.8-1.9-4-3.3c-1.1-1.4-2-3-2.6-4.9c-0.6-1.8-0.9-3.7-0.9-5.7   c0-2,0.3-3.9,0.9-5.6c0.6-1.8,1.4-3.3,2.5-4.7c1.2-1.5,2.6-2.7,4.1-3.6c1.5-0.8,3.1-1.3,4.8-1.3c2.1,0,4,0.6,5.8,1.7   c1.8,1.1,3.3,2.7,4.6,4.8c0.8,1.2,1.3,2.6,1.7,4.1s0.6,3.3,0.6,5.3c0,0.2,0,0.4,0,0.7c0,0.3,0,0.6,0,0.7L265.2,266.8z"/>
	<path id="path8" class="st0" d="M376.5,200l0-1.4l0-1.4l-0.1-1.4l-0.1-1.4l-0.2-1.4l-0.2-1.4l-0.3-1.4l-0.3-1.3l-0.4-1.3l-0.4-1.2   l-0.5-1.1l-0.6-1l-0.6-0.9l-0.7-0.8l-0.7-0.7l-0.8-0.7l-0.4-0.3l-0.5-0.3l-0.5-0.3l-0.5-0.3l-0.5-0.2l-0.6-0.2l-0.6-0.2l-0.6-0.2   l-0.6-0.2l-0.7-0.2l-0.7-0.2l-0.7-0.2l-0.7-0.1l-0.7-0.1l-0.8-0.1l-0.8-0.1l-0.8-0.1l-0.8-0.1l-0.8-0.1l-0.8-0.1l-0.9-0.1l-0.9,0   l-0.9,0l-0.9,0l-0.9,0l-0.9,0l-0.9,0l-0.9,0l-0.9,0l-0.9,0l-0.9,0l-0.9,0l-0.9,0l-0.9,0l-0.9,0l-0.9,0l-0.9,0l-0.9,0l-0.9,0l-0.9,0   l-0.9,0l-0.9,0l-0.9,0l-0.8,0.1l-0.8,0.1l-0.8,0.1l-0.8,0.1l-0.8,0.1l-0.8,0.1l-0.7,0.1l-0.7,0.1l-0.7,0.1l-0.7,0.2l-0.7,0.2   l-0.6,0.2l-0.6,0.2l-0.6,0.2l-0.6,0.2l-0.6,0.2l-0.5,0.2l-0.5,0.3l-0.5,0.3l-0.5,0.3l-0.4,0.3l-0.8,0.7l-0.7,0.7l-0.7,0.8l-0.6,0.9   l-0.6,1l-0.5,1.1l-0.5,1.2l-0.4,1.3l-0.3,1.3l-0.3,1.4l-0.2,1.4l-0.2,1.4l-0.1,1.4l-0.1,1.4l-0.1,1.4l0,1.4l0,1.4l0,1.3l0.1,1.3   l0.1,1.3l0.2,1.3l0.2,1.2l0.3,1.2l0.3,1.2l0.4,1.1l0.4,1l0.5,1l0.5,0.9l0.6,0.8l0.7,0.8l0.7,0.7l0.8,0.7l0.4,0.3l0.5,0.3l0.5,0.3   l0.5,0.3l0.5,0.3l0.6,0.3l0.6,0.2l0.6,0.2l0.6,0.2l0.6,0.2l0.7,0.2l0.7,0.2l0.7,0.2l0.7,0.2l0.7,0.1l0.7,0.1l0.8,0.1l0.8,0.1   l0.8,0.1l0.8,0.1l0.8,0.1l0.8,0.1l0.8,0.1l0.9,0.1l0.9,0l0.9,0l0.9,0l0.9,0l0.9,0l0.9,0l0.9,0l0.9,0h1.9l0.9,0l0.9,0l0.9,0l0.9,0   l0.9,0l0.9,0l0.9,0l0.9,0l0.9,0l0.9,0l0.9-0.1l0.9-0.1l0.9-0.1l0.8-0.1l0.8-0.1l0.8-0.1l0.8-0.1l0.8-0.1l0.7-0.1l0.7-0.2l0.7-0.2   l0.7-0.2l0.6-0.2l0.6-0.2l0.6-0.2l0.5-0.2l0.5-0.3l0.5-0.3l0.5-0.3l0.4-0.3l0.8-0.7l0.7-0.7l0.6-0.8l0.6-0.9l0.5-1l0.5-1l0.4-1.1   l0.3-1.2l0.3-1.2l0.2-1.3l0.2-1.3l0.1-1.4l0.1-1.4l0.1-1.4l0-1.4L376.5,200z M571.9,132.9h17.1v55.9l2.3-0.1l40.6-26l28.8,0.5   l-51.4,33.5l58.3,40.2l-29.2,0.5l-47.9-32.6l-1.5,0V237h-17.1L571.9,132.9z M523.2,162.1l1-0.1l1-0.1l1-0.1l1,0l1,0l1,0l1,0l1,0   l1,0l1,0l1,0l1,0l1,0l1,0.1l1,0.1l1,0.1l1,0.1l1,0.1l1,0.1l1,0.1l1,0.1l1,0.1l1,0.1l1.1,0.1l1.2,0.2l1.2,0.3l1.2,0.3l1.2,0.4   l1.1,0.5l1.1,0.5l1.1,0.6l1.1,0.6l1,0.7l1,0.8l0.9,0.8l0.9,0.9l0.8,1l0.8,1l0.8,1.1l0.7,1.2l0.7,1.2l0.6,1.3l0.5,1.3l0.5,1.3   l0.4,1.3l0.3,1.4l0.3,1.4l0.2,1.4l0.2,1.4l0.1,1.4l0.1,1.5l0,1.5l0,1.5l-0.1,1.5l-0.1,1.5l-0.4,4.6l-7.8,0.2l-0.7,0l-2,0.1l-0.7,0   l-2,0l-4.1,0.1l-0.2-4.2l0-0.8l0-0.8l0-0.8l0-0.8l0-0.8l0-0.7l0-0.7l0-0.7l0-0.7l0-0.7l0-0.7l-0.1-0.7l-0.1-0.7l-0.1-0.6l-0.1-0.6   l-0.3-1.1l-0.3-0.9l-0.3-0.8l-0.3-0.6l-0.4-0.5l-0.4-0.4l-0.4-0.3l-0.4-0.3l-0.5-0.2l-0.5-0.2l-0.6-0.2l-0.6-0.2l-0.7-0.1l-0.7-0.1   l-0.8-0.1l-0.8-0.1l-1.3-0.1l-1.3-0.1l-1.3-0.1l-1.2-0.1l-1.2-0.1l-1.2-0.1l-1.1,0l-1.1,0l-1.1,0h-1l-1,0l-1,0l-0.9,0l-0.9,0.1   l-0.9,0.1l-0.9,0.1l-0.8,0.1l-0.8,0.1l-0.8,0.1l-0.8,0.1l-0.8,0.1l-0.7,0.1l-0.7,0.1l-0.7,0.1l-0.7,0.2l-0.7,0.2l-0.7,0.2l-0.7,0.2   l-0.7,0.2l-0.7,0.2l-0.7,0.2l-0.5,0.2l-0.9,0.4l-0.7,0.4l-0.6,0.5l-0.6,0.6l-0.5,0.7l-0.5,0.9l-0.4,1l-0.4,1.2l-0.3,1.3l-0.3,1.4   l-0.2,1.5l-0.2,1.6l-0.1,1.7l-0.1,1.7l-0.1,1.8l-0.1,1.8l0,1.1l0,1.1l0,1.1l0,2.3l0,2l0,1.1l0,1.1l0,1.1l0,1.1l0,1.1l0,1.1l0,1.1   l0,2.1l0,1.1l0,1.1l0,1.1l0,1.1l0,1.1l0,1.1l0,1.1l0,1.1l0,1.1l0,1.1l0,1.1l0,1.1l0,1.1l0,1.1l0,1.1l0,4.5h-17.1v-74.2h17.2v4.6   l0.4-0.3l0.9-0.6l1-0.6l1-0.6l1-0.5l1.1-0.5l1.1-0.4l1.1-0.3l1.1-0.3l1.1-0.2l1-0.2l1-0.2l1-0.2l1-0.1l1-0.1l1-0.1L523.2,162.1z    M417.9,207l-1.3,0.3l-1,0.5l-0.8,0.6l-0.7,0.8l-0.6,1l-0.4,1.1l-0.2,1.2l-0.1,1.2l0.1,1.2l0.3,1.2l0.4,1.1l0.6,0.9l0.7,0.8   l0.8,0.6l1,0.4l1.4,0.3l1.1,0.1l1.2,0.1l1.2,0.1l1.2,0.1l1.2,0.1l1.2,0.1l1.2,0.1l1.2,0.1l1.2,0.1l1.2,0.1l1.2,0l1.2,0l1.2,0l1.2,0   l1.3,0l1.2,0l1.2,0l1.3,0l1.3,0l1.3,0l1.3,0l1.3,0l1.3,0l1.3-0.1l1.3-0.1l1.3-0.1l1.3-0.1l1.3-0.1l1.3-0.1l1.3-0.1l1.3-0.1l1.1-0.1   l2.4-0.4l1.8-0.6l1.4-0.8l1-0.9l0.7-1l0.5-1l0.2-1.1l0-1.2l-0.2-1.2l-0.5-1.2l-0.7-1.1l-0.9-1l-1.1-0.9l-1.4-0.7l-1.6-0.5l-2-0.3   l-1.1-0.1l-1.3-0.1l-1.3-0.1l-1.3-0.1l-1.3-0.1l-1.3-0.1l-1.3-0.1l-1.3-0.1l-1.3-0.1L445,206l-1.3,0l-1.3,0l-1.3,0l-1.3,0l-1.3,0   l-1.2,0l-1.2,0l-1.2,0l-1.2,0l-1.2,0l-1.2,0l-1.2,0l-1.2,0.1l-1.2,0.1l-1.2,0.1l-1.2,0.1l-1.2,0.1l-1.2,0.1l-1.2,0.1l-1.2,0.2   l-1.2,0.2L417.9,207z M449.8,161.7l1.7,0.1l1.7,0.1l1.7,0.1l1.7,0.2l1.7,0.2l1.7,0.2l1.7,0.2l1.7,0.2l1.9,0.3l2,0.6l1.7,0.6   l1.6,0.7l1.6,0.7l1.5,0.8l1.4,0.9l1.3,1l1.2,1l1.1,1.1l1,1.2l0.9,1.3l0.8,1.3l0.7,1.4l0.6,1.5l0.4,1.5l0.3,1.6l0.2,1.8l0.2,1.6   l0.1,1.6l0.1,1.6l0.1,1.6l0.1,1.6l0.1,1.6l0.1,1.6l0.1,1.6l0.1,1.6l0,1.6l0,1.6l0,1.6l0,1.6l0,1.6l0,1.6l0,1.6v1.6l0,1.6l0,1.6   l0,1.6l0,1.6l0,1.6l0,1.6l0,1.6l0,1.6l0,1.6l0,1.6l0,1.6l0,1.6l0,1.6l0,5.1h-17v-2.9l-0.3,0.2l-1.3,0.6l-1.4,0.6l-1.5,0.5l-1.6,0.4   l-1.7,0.4l-1.8,0.3l-1.9,0.2l-2.1,0.2l-2.2,0.1l-1.2,0l-1.2,0l-1.2,0l-1.2,0l-1.2,0l-1.2,0l-1.2,0l-1.2,0l-1.2,0l-1.2,0l-1.2,0   l-1.2,0l-1.2,0l-1.2,0l-1.2,0l-1.2,0l-1.2,0l-1.2,0l-1.2,0l-1.2,0l-1.2,0l-1.2,0l-1.2,0l-1.2-0.1l-1.2-0.1l-1.2-0.1l-1.2-0.1   L418,237l-1.2-0.1l-1.2-0.1l-1.2-0.1l-1.4-0.2l-1.6-0.4l-1.4-0.4l-1.4-0.4l-1.3-0.5l-1.3-0.5l-1.3-0.6l-1.2-0.7l-1.2-0.7l-1.1-0.8   l-1.1-0.9l-1-1l-0.9-1.1l-0.8-1.2l-0.7-1.3l-0.6-1.4l-0.5-1.6l-0.2-1.5l-0.1-1.2l-0.1-1.2l-0.1-1.2l-0.1-1.1l0-1.1l0-1.1l0-1.1   l0-1.1l0-1.1l0.1-1.1l0.1-1.1l0.1-1.1l0.1-1.1l0.2-1.1l0.2-1.1l0.3-1.1l0.3-1l0.4-1l0.4-1l0.5-1l0.6-1l0.6-1l0.7-0.9l0.8-0.9   l0.9-0.8l1-0.8l1-0.7l1.1-0.6l1.2-0.6l1.3-0.5l1.3-0.4l0.7-0.2l0.7-0.1l0.7-0.1l0.7-0.1l0.7-0.1l0.7-0.1l0.7-0.1l0.7-0.1l0.7-0.1   l0.7,0l0.7,0l0.7,0l0.6,0l0.6,0l0.6,0l0.6,0l1.2-0.1l1.2-0.1l1.2-0.1l1.2-0.1l1.2-0.1l1.2-0.1l1.2,0l1.2,0l1.2,0l1.2,0l1.2,0l1.2,0   h1.2l1.2,0l1.3,0l1.3,0l1.3,0l1.3,0l1.3,0l1.3,0.1l1.3,0.1l1.3,0.1l1.3,0.1l1.3,0.1l1.3,0.1l1.3,0.1l1.3,0.1l1.3,0.1l1.3,0.1   l1.3,0.1l1.3,0.1l1.2,0.1l0.7,0l0.9,0.1l0.9,0.2l0.9,0.2l0.9,0.3l0.9,0.3l0.9,0.4l0.9,0.5l0.6,0.3l0-0.4l0-0.9l0-0.9l0-0.9l0-0.9   l0-0.9l0-0.9l0-0.6l-0.2-0.8l-0.2-0.9l-0.3-0.8l-0.4-0.7l-0.4-0.7l-0.5-0.6l-0.5-0.6l-0.6-0.5l-0.7-0.5l-0.8-0.5l-0.8-0.4l-0.9-0.4   l-1-0.4l-1.1-0.3l-1.2-0.3l-1.2-0.2l-0.9,0l-1.1,0l-1.1,0l-1.1,0l-1.1,0l-1.1,0l-1.1,0l-1.1,0l-1.1,0l-1.1,0l-1.1,0l-1.1,0l-1.1,0   l-1.1,0l-1.1,0l-1.1,0l-1.1,0l-1.1,0l-1.1,0l-1.1,0l-1.1,0l-1.1,0l-1.1,0l-1,0l-1,0.1l-1,0.1l-1,0.1l-1,0.1l-1,0.1l-1,0.1l-1,0.1   l-1.1,0.1l-1.1,0.1l-0.8,0.1l-0.7,0.2l-0.6,0.2l-0.5,0.3l-0.4,0.3l-0.4,0.4l-0.4,0.4l-0.3,0.5l-0.3,0.5l-0.3,0.6l-0.3,0.7l-0.2,0.7   l-0.2,0.8l-0.2,0.9l-0.5,3.9l-3.6,0.2l-0.7,0l-0.7,0l-0.7,0l-0.7,0l-0.7,0l-0.7,0l-0.6,0l-0.6,0l-0.6,0l-0.6,0l-0.6,0l-0.6,0   l-0.6,0l-0.6,0l-3.8,0.2l-0.7-4.8l-0.2-1.7l-0.1-1.7l0-1.7l0.2-1.7l0.3-1.7l0.5-1.6l0.6-1.6l0.8-1.5l1-1.4l1.2-1.3l1.4-1.2l1.6-1   l1.7-0.9l1.9-0.7l2-0.6l1.7-0.4l1.7-0.4l1.7-0.3l1.7-0.3l1.7-0.3l1.7-0.3l1.7-0.2l1.7-0.2l1.7-0.2l1.7-0.2l1.7-0.1l1.7-0.1l1.7-0.1   l1.7-0.1l1.7-0.1l1.7,0l1.7,0l1.7,0l1.7,0l1.7,0l1.7,0.1l1.7,0.1L449.8,161.7z M44,132.8v19.8H26.5v-19.8H44z M44,236.6H26.5v-73.8   H44V236.6z M195.8,148.9l-1,0l-1.1,0l-1.1,0l-1.2,0l-1.2,0l-1.2,0.1l-1.3,0.1l-1.3,0.1l-1.3,0.1l-1.3,0.1l-1.2,0.1l-1.2,0.1   l-1.2,0.1l-1.1,0.1L178,150l-1,0.2l-0.9,0.2l-0.8,0.2l-0.7,0.2l-0.6,0.2l-0.5,0.2l-0.3,0.1l-0.3,0.4l-0.8,0.6l-0.1,0.1l-0.2,0.3   l-0.2,0.4l-0.2,0.6l-0.2,0.7l-0.2,0.8l-0.1,0.9l-0.1,1l-0.1,1l-0.1,1.1l0,1.1l0,1.1l0,1.1l0,0.7h33.7v15.8H170v58.5h-17.3v-58.5   H138l0.1,0.2l0.3,1.3l0.3,1.5l1,54.6l-17.6,1l-0.1-7.7l0-1.3l0-4l0-1.3l0-4l0-1.3l0-1.3l0-1.3l0-1.3l0-1.3l0-1.3l0-2.7l0-1.3l0-4   l0-1.3l0-1.3l0-2.7l0-1.3l0-1.3l0-1.3l0-1.3l0-1.5l0.1-1.3l0-0.9l-0.1-0.9l-0.2-0.8l-0.3-0.8l-0.4-0.8l-0.5-0.8l-0.6-0.7l-0.7-0.7   l-0.8-0.7l-1-0.7l-1.1-0.7l-1.2-0.7l-1.4-0.6l-1.5-0.6l-1.3-0.4l-0.5,0l-0.9,0l-0.9,0l-0.9,0l-0.9,0l-0.9,0l-0.9,0l-0.9,0l-0.9,0   l-0.9,0l-0.9,0l-0.9,0l-0.9,0l-0.9,0l-0.9,0l-0.9,0l-0.9,0l-0.9,0l-0.9,0l-0.9,0l-0.9,0l-0.9,0l-0.9,0l-0.9,0l-0.9,0l-0.9,0.1   l-0.9,0.1l-0.9,0.1l-0.9,0.1l-0.9,0.1l-0.9,0.1l-0.8,0.1l-1.8,0.4l-1.7,0.4l-1.5,0.5l-1.4,0.6l-1.3,0.7L73,182l-1,0.8l-0.9,0.8   l-0.8,0.9l-0.7,1l-0.7,1l-0.6,1.1l-0.5,1.2l-0.5,1.2l-0.4,1.3l-0.3,1.1v44.2H49v-73.8h17.5v5.3l0.8-0.6l1.1-0.8l1.1-0.7l1.2-0.6   l1.2-0.5l1.3-0.4l1.3-0.4l1.3-0.3l1-0.1l0.6-0.2l0.9-0.2l0.9-0.2l0.9-0.2l0.9-0.2l0.9-0.1l0.9-0.1l1-0.1l1-0.1l1-0.1l1-0.1l1-0.1   l1-0.1l1.1-0.1l1.1,0l1.1,0l1.1,0l1.1,0l1.1,0l1.1,0l1.1,0l1.2,0l1.2,0l1.2,0l1.2,0l1.2,0l1.2,0l1.2,0l1.2,0l1.2,0l1.2,0l1.3,0   l1.2,0.1l1.2,0.1l1.2,0.1l1.2,0.1l1.2,0.2l1.1,0.2l1.1,0.2l1.1,0.2l1.1,0.3l1.1,0.3l1.1,0.3l1.1,0.4l1,0.4l1,0.4l1,0.5l1,0.5   l0.9,0.6l0.9,0.6l0.9,0.7l0.9,0.7l0.8,0.8l0.8,0.8l0.7,0.9l0.7,0.9l0.6,1l0.6,1l0.5,1.1l0.5,1.1l0,0V163h15.4l0-0.2l0-1.6l0.1-1.6   l0.1-1.5l0.1-1.5l0.1-1.5l0.2-1.4l0.2-1.4l0.3-1.4l0.3-1.3l0.4-1.3l0.5-1.3l0.6-1.2l0.6-1.2l0.7-1.1l0.8-1.1l0.9-1l1-1l1.1-0.9   l1.2-0.8l1.2-0.8l1.3-0.7l1.4-0.6l1.5-0.6l1.6-0.5l1.6-0.4l1.7-0.4l1.8-0.3l1.9-0.3l2-0.2l2.1-0.2l2.4-0.2l0.6,0l0.6,0l0.9,0l1.1,0   l1.3,0l1.4-0.1l1.5-0.1l1.5-0.1l1.5-0.1l1.5-0.1l1.4,0l1.3,0l1.2,0l1,0l0.9,0l3.7,0.4l0.2,15.9L200,149l-0.4,0l-0.6,0l-0.7,0   l-0.8,0l-0.9,0L195.8,148.9z M276.3,200l0-1.4l0-1.4l-0.1-1.4l-0.1-1.4l-0.2-1.4l-0.2-1.4l-0.3-1.4l-0.3-1.3l-0.4-1.3l-0.4-1.2   l-0.5-1.1l-0.5-1l-0.6-0.9l-0.6-0.8l-0.7-0.7l-0.8-0.7l-0.4-0.3l-0.4-0.3l-0.5-0.3l-0.5-0.3l-0.5-0.2l-0.6-0.2l-0.6-0.2l-0.6-0.2   l-0.6-0.2l-0.6-0.2l-0.7-0.2l-0.7-0.2l-0.7-0.1l-0.7-0.1l-0.7-0.1l-0.8-0.1l-0.8-0.1l-0.8-0.1l-0.8-0.1l-0.8-0.1l-0.8-0.1l-0.9,0   l-0.9,0l-0.9,0l-0.9,0l-0.9,0l-0.9,0l-0.9,0l-0.9,0l-0.9,0l-0.9,0l-0.9,0l-0.9,0l-0.9,0l-0.9,0l-0.9,0l-0.9,0l-0.9,0l-0.9,0l-0.9,0   l-0.9,0l-0.8,0l-0.8,0l-0.8,0.1l-0.8,0.1l-0.8,0.1l-0.8,0.1l-0.8,0.1l-0.7,0.1l-0.7,0.1l-0.7,0.1l-0.7,0.1l-0.7,0.2l-0.6,0.2   l-0.6,0.2l-0.6,0.2l-0.6,0.2l-0.6,0.2l-0.5,0.2l-0.5,0.2l-0.5,0.3l-0.5,0.3l-0.4,0.3l-0.4,0.3l-0.8,0.7l-0.7,0.7l-0.7,0.8l-0.6,0.9   l-0.6,1l-0.5,1.1l-0.5,1.2l-0.4,1.3l-0.3,1.3l-0.3,1.4l-0.2,1.4l-0.2,1.4l-0.1,1.4l-0.1,1.4l-0.1,1.4l0,1.4l0,1.4l0,1.3l0.1,1.3   l0.1,1.3l0.2,1.3l0.2,1.2l0.3,1.2l0.3,1.2l0.4,1.1l0.4,1l0.5,1l0.5,0.9l0.6,0.8l0.6,0.8l0.7,0.7l0.8,0.7l0.4,0.3l0.5,0.3l0.5,0.3   l0.5,0.3l0.5,0.3l0.5,0.3l0.6,0.2l0.6,0.2l0.6,0.2l0.6,0.2l0.7,0.2l0.7,0.2l0.7,0.2l0.7,0.2l0.7,0.1l0.7,0.1l0.8,0.1l0.8,0.1   l0.8,0.1l0.8,0.1l0.8,0.1l0.8,0.1l0.8,0.1l0.8,0.1l0.9,0l0.9,0l0.9,0l0.9,0l0.9,0l0.9,0l0.9,0l0.9,0h1.9l0.9,0l0.9,0l0.9,0l0.9,0   l0.9,0l0.9,0l0.9,0l0.9,0l0.9,0l0.9,0l0.9-0.1l0.9-0.1l0.8-0.1l0.8-0.1l0.8-0.1l0.8-0.1l0.8-0.1l0.8-0.1l0.7-0.1l0.7-0.2l0.7-0.2   l0.7-0.2l0.6-0.2l0.6-0.2l0.6-0.2l0.5-0.2l0.5-0.3l0.5-0.3l0.4-0.3l0.4-0.3l0.8-0.7l0.7-0.7l0.6-0.8l0.6-0.9l0.5-1l0.5-1l0.4-1.1   l0.3-1.2l0.3-1.2l0.2-1.3l0.2-1.3l0.1-1.4l0.1-1.4l0.1-1.4l0-1.4L276.3,200z M293.7,202.1l0,1l0,1l-0.1,1l-0.1,1l-0.1,1l-0.1,1.1   l-0.1,1.1l-0.1,1.1l-0.1,1.1l-0.2,1.1l-0.2,1.1l-0.2,1.1l-0.2,1l-0.3,1l-0.3,1l-0.3,1l-0.3,1l-0.4,1l-0.4,1l-0.4,1l-0.5,1l-0.5,0.9   l-0.6,0.9l-0.6,0.9l-0.6,0.9l-0.7,0.8l-0.7,0.8l-0.8,0.8l-0.8,0.7l-0.9,0.7l-0.9,0.6l-0.9,0.6l-1,0.5l-1,0.5l-1,0.5l-1,0.4   l-1.1,0.4l-1.1,0.4l-1.1,0.3l-1.1,0.3l-1.1,0.3l-1.1,0.2l-1.2,0.2l-1.2,0.2l-1.2,0.2l-1.2,0.1l-1.2,0.1l-1.2,0.1l-1.2,0.1l-1.2,0.1   l-1.2,0.1l-1.2,0.1l-1.3,0l-1.3,0l-1.3,0l-1.3,0l-1.3,0l-1.2,0l-1.2,0l-1.2,0h-1.2l-1.2,0l-1.2,0l-1.2,0l-1.2,0l-1.2,0l-1.2,0   l-1.2,0l-1.2-0.1l-1.2-0.1l-1.2-0.1l-1.2-0.1l-1.2-0.1l-1.2-0.1l-1.2-0.1l-1.2-0.2l-1.1-0.2l-1.1-0.2l-1.1-0.2l-1.1-0.2l-1.1-0.2   l-1.1-0.3l-1.1-0.3l-1-0.3l-1-0.3l-1-0.4l-1-0.4l-1-0.4l-1-0.5l-0.9-0.5l-0.9-0.5l-0.9-0.5l-0.9-0.6l-0.9-0.6l-0.8-0.7l-0.8-0.7   l-0.8-0.7l-0.7-0.8l-0.7-0.8l-0.6-0.8l-0.6-0.9l-0.5-0.9l-0.5-0.9l-0.5-0.9l-0.4-0.9l-0.4-0.9l-0.4-1l-0.3-1l-0.3-1l-0.3-1l-0.3-1   l-0.2-1l-0.2-1l-0.2-1l-0.2-1l-0.1-1l-0.1-1l-0.1-1l-0.1-1l-0.1-1l-0.1-1l0-1l0-1l0-1l0-1l0-1l0-1l0-1l0-1l0.1-1l0.1-1l0.1-1.1   l0.1-1.1l0.1-1.1l0.1-1.1l0.2-1.1l0.2-1.1l0.2-1.1l0.2-1.1l0.3-1.1l0.3-1.1l0.3-1.1l0.3-1l0.4-1l0.4-1l0.4-1l0.4-1l0.5-1l0.5-1   l0.5-0.9l0.6-0.9l0.6-0.9l0.7-0.9l0.7-0.8l0.7-0.8l0.8-0.8l0.8-0.7l0.9-0.7l0.9-0.6l0.9-0.6l0.9-0.5l0.9-0.5l1-0.5l1-0.4l1-0.4   l1-0.4l1-0.3l1-0.3l1.1-0.3l1.1-0.2l1.1-0.2l1.1-0.2l1.1-0.2l1.1-0.2l1.1-0.1l1.1-0.1l1.2-0.1l1.2-0.1l1.2-0.1l1.2-0.1l1.2-0.1   l1.2,0l1.2,0l1.2,0l1.2,0l1.2,0l1.2,0l1.2,0l1.2,0l1.2,0l1.2,0l1.2,0l1.2,0l1.2,0l1.2,0l1.2,0l1.2,0l1.2,0l1.2,0l1.2,0l1.2,0.1   l1.2,0.1l1.2,0.1l1.2,0.1l1.2,0.1l1.2,0.1l1.2,0.2l1.1,0.2l1.1,0.2l1.1,0.2l1.1,0.2l1.1,0.3l1.1,0.3l1.1,0.3l1,0.4l1,0.4l1,0.4   l1,0.5l1,0.5l0.9,0.5l0.9,0.6l0.9,0.6l0.9,0.7l0.8,0.7l0.8,0.8l0.7,0.8l0.7,0.9l0.6,0.9l0.6,0.9l0.6,0.9l0.5,1l0.5,1l0.4,1l0.4,1   l0.4,1l0.3,1l0.3,1.1l0.3,1.1l0.3,1.1l0.2,1.1l0.2,1.1l0.2,1.1l0.2,1.1l0.1,1.1l0.1,1.1l0.1,1.1l0.1,1.1l0.1,1.1l0.1,1.1l0.1,1l0,1   l0,1l0,1l0,1l0,1L293.7,202.1z M347.8,161.9l1.2,0l1.2,0l1.2,0l1.2,0l1.2,0l1.2,0l1.2,0l1.2,0l1.2,0l1.2,0l1.2,0.1l1.2,0.1l1.2,0.1   l1.1,0.1l1.1,0.1l1.1,0.1l1.1,0.1l1.1,0.2l1.1,0.2l1.1,0.2l1.1,0.2l1.1,0.2l1.1,0.3l1,0.3l1,0.3l1,0.4l1,0.4l1,0.4l1,0.5l0.9,0.5   l0.9,0.5l0.9,0.6l0.9,0.6l0.8,0.7l0.8,0.7l0.7,0.8l0.7,0.8l0.7,0.9l0.6,0.9l0.6,0.9l0.5,0.9l0.5,1l0.5,1l0.4,1l0.4,1l0.4,1l0.3,1   l0.3,1l0.3,1.1l0.2,1.1l0.2,1.1l0.2,1.1l0.2,1.1l0.2,1.1l0.1,1.1l0.1,1.1l0.1,1.1l0.1,1.1l0.1,1.1l0.1,1.1l0,1l0,1l0,1l0,1l0,1l0,1   l0,1l0,1l0,1l0,1l-0.1,1l-0.1,1l-0.1,1l-0.1,1.1l-0.1,1.1l-0.1,1.1l-0.2,1.1l-0.2,1.1l-0.2,1l-0.2,1l-0.3,1l-0.3,1l-0.3,1l-0.3,1   l-0.4,1l-0.4,1l-0.4,1l-0.5,1l-0.5,0.9l-0.5,0.9l-0.6,0.9l-0.6,0.9l-0.7,0.8l-0.7,0.8l-0.7,0.8l-0.8,0.7l-0.8,0.7l-0.9,0.6   l-0.9,0.6l-0.9,0.5l-1,0.5l-1,0.5l-1,0.4l-1,0.4l-1,0.4l-1.1,0.3l-1.1,0.3l-1.1,0.3l-1.1,0.2l-1.1,0.2l-1.1,0.2l-1.1,0.2l-1.2,0.1   l-1.2,0.1l-1.2,0.1l-1.2,0.1l-1.2,0.1l-1.2,0.1l-1.2,0.1l-1.2,0l-1.2,0l-1.2,0l-1.2,0l-1.2,0l-1.2,0l-1.2,0l-1.2,0H349l-1.2,0   l-1.2,0l-1.2,0l-1.2,0l-1.2,0l-1.2,0l-1.2,0l-1.2-0.1l-1.2-0.1l-1.2-0.1l-1.1-0.1l-1.1-0.1l-1.1-0.1l-1.1-0.1l-1.1-0.2l-1.1-0.2   l-1.1-0.2l-1.1-0.2l-1.1-0.2l-1.1-0.2l-1-0.3l-1-0.3l-1-0.3l-1-0.3l-1-0.4l-1-0.4l-1-0.4l-0.9-0.5l-0.9-0.5l-0.7-0.4v29.6h-17.5   v-98.5h17.5v4.5l0.8-0.5l0.9-0.5l0.9-0.5l1-0.4l1-0.4l1-0.4l1-0.3l1-0.3l1-0.3l1-0.2l1.1-0.2l1.1-0.2l1.1-0.2l1.1-0.2l1.1-0.1   l1.1-0.1l1.1-0.1l1.1-0.1l1.1-0.1l1.1-0.1l1.1-0.1l1.2,0l1.2,0l1.2,0l1.2,0l1.2,0l1.2,0l1.2,0L347.8,161.9z"/>
	<path id="path10" class="st1" d="M558.5,276.7h3.6v-12.5l12.2,12.5h5l-13.1-13.4l11-11.8h-4.5l-10.5,11.3v-11.3h-3.6L558.5,276.7z    M578.3,263.9c0,1.8,0.3,3.5,1,5.1c0.7,1.6,1.6,3,2.9,4.3c0.8,0.8,1.8,1.5,2.8,2.1c1,0.6,2.1,1,3.2,1.3c1.1,0.3,2.3,0.4,3.5,0.4   c1.8,0,3.6-0.3,5.2-1c1.6-0.6,3.1-1.6,4.4-2.8c0.9-0.8,1.6-1.7,2.2-2.7c0.6-1,1-2,1.3-3.1c0.3-1.1,0.4-2.2,0.4-3.3   c0-1.8-0.3-3.5-1-5.1c-0.7-1.6-1.7-3-3-4.3c-0.8-0.8-1.8-1.5-2.8-2.1c-1-0.6-2.1-1-3.2-1.3c-1.1-0.3-2.3-0.4-3.5-0.4   c-1.8,0-3.5,0.3-5.1,1c-1.6,0.6-3.1,1.6-4.4,2.8c-0.8,0.8-1.6,1.7-2.1,2.7c-0.6,1-1,2-1.3,3.1C578.4,261.7,578.3,262.8,578.3,263.9   L578.3,263.9z M582.1,264.1c0-0.9,0.1-1.7,0.3-2.5c0.2-0.8,0.5-1.6,0.9-2.3c0.4-0.7,0.9-1.4,1.5-2c0.9-0.9,2-1.6,3.1-2.1   c1.2-0.5,2.4-0.7,3.7-0.7c1.3,0,2.5,0.2,3.7,0.7c1.2,0.5,2.2,1.2,3.1,2.1c0.9,0.9,1.6,2,2.1,3.1c0.5,1.1,0.7,2.4,0.7,3.7   c0,1.3-0.2,2.5-0.7,3.7c-0.5,1.2-1.2,2.2-2.1,3.1c-0.9,0.9-2,1.6-3.1,2.1c-1.2,0.5-2.4,0.7-3.7,0.7c-0.9,0-1.7-0.1-2.5-0.3   c-0.8-0.2-1.6-0.5-2.3-0.9c-0.7-0.4-1.4-0.9-2-1.5c-0.9-0.9-1.6-2-2.1-3.1C582.3,266.6,582.1,265.4,582.1,264.1L582.1,264.1z    M630.7,270.7c-1.6,1-3.1,1.7-4.6,2.2c-1.5,0.5-3,0.7-4.5,0.7c-1.5,0-2.8-0.3-4-0.7c-1.2-0.5-2.3-1.2-3.2-2   c-0.9-0.9-1.6-1.9-2.1-3.1c-0.5-1.2-0.7-2.4-0.7-3.8c0-1.4,0.3-2.6,0.7-3.8c0.5-1.2,1.2-2.2,2.1-3.1c0.9-0.9,2-1.6,3.2-2.1   c1.2-0.5,2.6-0.7,4.1-0.7c1.4,0,2.8,0.2,4.2,0.7c1.4,0.4,2.9,1.1,4.4,1.9V253c-0.8-0.4-1.6-0.7-2.5-1c-0.9-0.3-1.8-0.6-2.9-0.7   c-1-0.2-2.1-0.3-3.3-0.3c-2,0-3.9,0.3-5.6,0.9c-1.7,0.6-3.2,1.6-4.5,2.9c-0.8,0.8-1.6,1.7-2.1,2.7c-0.6,1-1,2-1.3,3.1   c-0.3,1.1-0.5,2.2-0.5,3.3c0,1.5,0.2,2.9,0.7,4.3c0.5,1.3,1.1,2.6,2,3.7c0.9,1.1,2,2.1,3.2,2.9c1.1,0.7,2.4,1.3,3.7,1.7   c1.3,0.4,2.7,0.6,4.2,0.6c1.5,0,3-0.2,4.6-0.6c1.5-0.4,3-1,4.5-1.8L630.7,270.7z M634.9,276.7h3.6v-11H653v11h3.6v-25.3H653v10.9   h-14.6v-10.9h-3.6V276.7z M662.1,276.7h3.6v-25.3h-3.6V276.7z"/>
</g>
</svg>