<svg width="45" height="45" viewBox="0 0 45 45" fill="none" xmlns="http://www.w3.org/2000/svg">
<g clip-path="url(#clip0_5_81)">
<path d="M45 0C45 0 34.1525 0.6225 26.6875 8.125C26.6875 8.125 19.57 5.8825 14.385 15.815L21.8075 15.475C21.2225 16.885 20.7475 18.425 20.405 20.1025L24.8975 24.595C26.5825 24.2525 28.125 23.7725 29.5375 23.185L29.1975 30.6025C39.1325 25.415 36.915 18.2625 36.915 18.2625C44.375 10.8 45 0 45 0ZM31.765 9.73C32.7275 8.7675 34.29 8.7675 35.2425 9.7225C36.205 10.685 36.205 12.245 35.2425 13.2075C34.28 14.17 32.7275 14.16 31.765 13.2025C30.8125 12.2475 30.8125 10.6875 31.765 9.73Z" fill="#FF7315"/>
<path d="M38.3225 38.425C30.735 46.0125 19.0875 47.0275 10.405 41.5L12.6 39.3025L13.7975 38.105L23.4875 28.415L26.8025 31.73L18.6025 39.93C24.34 41.195 30.57 39.6 35.0375 35.1375C38.31 31.8625 40.0425 27.6375 40.235 23.3475L44.6075 18.975C45.72 25.84 43.62 33.13 38.3275 38.425H38.3225Z" fill="white"/>
<path d="M9.8625 9.965C5.4 14.43 3.8025 20.6625 5.07 26.4L13.27 18.2L16.585 21.515L5.6975 32.4025L3.5 34.595C-2.0275 25.9125 -1.0125 14.265 6.575 6.6775C11.87 1.385 19.16 -0.715001 26.025 0.397499L21.6525 4.77C17.3625 4.96 13.1375 6.695 9.8625 9.9675V9.965Z" fill="white"/>
<path d="M20.9473 25.8996L18.7393 23.6917L5.46516 36.9659L7.6731 39.1738L20.9473 25.8996Z" fill="#FF7315"/>
</g>
<defs>
<clipPath id="clip0_5_81">
<rect width="45" height="45" fill="white"/>
</clipPath>
</defs>
</svg>
